HIERARCHY
ROOT WRIST
{
	OFFSET 0.000000 0.000000 0.000000
	CHANNELS 6 Xposition Yposition Zposition Yrotation Xrotation Zrotation
	JOINT THUMB_CMC_FE
	{
		OFFSET 0.225143 0.117753 -0.062308
		CHANNELS 3 Yrotation Xrotation Zrotation
		JOINT THUMB_CMC_AA
		{
			OFFSET 0.212856 -0.150507 0.098851
			CHANNELS 3 Yrotation Xrotation Zrotation
			JOINT THUMB_MCP_FE
			{
				OFFSET -0.322503 -0.167445 -0.031436
				CHANNELS 3 Yrotation Xrotation Zrotation
				JOINT THUMB_IP_FE
				{
					OFFSET 0.295233 -0.236404 0.025845
					CHANNELS 3 Yrotation Xrotation Zrotation
					End Site
					{
						OFFSET 0.000000 0.000000 0.000000
					}
				}
			}
		}
	}
	JOINT INDEX_MCP
	{
		OFFSET 1.076913 0.264198 -0.014768
		CHANNELS 3 Yrotation Xrotation Zrotation
		JOINT INDEX_PIP_FE
		{
			OFFSET 0.425053 0.013289 0.013619
			CHANNELS 3 Yrotation Xrotation Zrotation
			JOINT INDEX_DIP_FE
			{
				OFFSET 0.271505 -0.024898 0.000550
				CHANNELS 3 Yrotation Xrotation Zrotation
				End Site
				{
					OFFSET 0.000000 0.000000 0.000000
				}
			}
		}
	}
	JOINT MIDDLE_MCP
	{
		OFFSET 1.072991 0.019362 0.038780
		CHANNELS 3 Yrotation Xrotation Zrotation
		JOINT MIDDLE_PIP_FE
		{
			OFFSET 0.480704 0.002618 0.028696
			CHANNELS 3 Yrotation Xrotation Zrotation
			JOINT MIDDLE_DIP_FE
			{
				OFFSET 0.307486 -0.031129 -0.000643
				CHANNELS 3 Yrotation Xrotation Zrotation
				End Site
				{
					OFFSET 0.000000 0.000000 0.000000
				}
			}
		}
	}
	JOINT RING_MCP
	{
		OFFSET 0.994992 -0.195930 -0.005938
		CHANNELS 3 Yrotation Xrotation Zrotation
		JOINT RING_PIP_FE
		{
			OFFSET 0.436995 0.003792 0.019994
			CHANNELS 3 Yrotation Xrotation Zrotation
			JOINT RING_DIP_FE
			{
				OFFSET 0.295558 -0.038341 -0.006642
				CHANNELS 3 Yrotation Xrotation Zrotation
				End Site
				{
					OFFSET 0.000000 0.000000 0.000000
				}
			}
		}
	}
	JOINT PINKY_MCP
	{
		OFFSET 0.873858 -0.393246 -0.086282
		CHANNELS 3 Yrotation Xrotation Zrotation
		JOINT PINKY_PIP_FE
		{
			OFFSET 0.343972 -0.016492 0.013445
			CHANNELS 3 Yrotation Xrotation Zrotation
			JOINT PINKY_DIP_FE
			{
				OFFSET 0.224713 -0.036309 -0.010265
				CHANNELS 3 Yrotation Xrotation Zrotation
				End Site
				{
					OFFSET 0.000000 0.000000 0.000000
				}
			}
		}
	}
}
MOTION
Frames: 21
Frame Time: 0.008333334
1.973773 3.327262 3.757412 65.682300 -18.010560 10.954170 61.461190 4.834465 72.063480 119.352900 -30.976930 38.424300 -112.863900 -65.843260 -28.077090 4.562087 -8.459869 -33.905300 -178.130600 3.442650 -168.107900 -41.978030 -86.125550 -22.962340 -2.052612 1.704991 -1.001709 -157.963200 -2.830109 -166.423800 -39.240540 -88.411440 -7.694702 -6.002502 4.395441 -6.844727 -162.454100 -9.524506 -167.944800 -31.479520 -85.617800 11.452820 0.199299 0.562931 -3.178528 166.666800 -8.603516 -159.902000 -48.977660 -83.530610 35.517470 5.539822 0.809185 -8.749908 
1.970249 3.318757 3.761005 65.645660 -17.849460 10.817990 61.461160 4.834484 71.908000 119.352900 -30.976930 38.376700 -112.863900 -65.843230 -27.930240 4.562082 -8.459839 -33.470250 -178.192100 3.443009 -168.023900 -41.978030 -86.125670 -23.162960 -2.052612 1.704995 -0.984833 -157.891900 -2.836273 -166.325000 -39.239990 -88.411440 -7.605743 -6.002533 4.395461 -6.091003 -162.632200 -9.488403 -167.722800 -31.479520 -85.617800 10.882150 0.199312 0.562929 -2.921448 166.650900 -8.597565 -159.735300 -48.977540 -83.530610 34.970550 5.539823 0.809172 -8.248932 
1.968241 3.309381 3.765297 65.685910 -17.833440 10.715800 61.461180 4.834466 71.840770 119.352900 -30.976930 38.252970 -112.864000 -65.843230 -27.945740 4.562096 -8.459839 -32.920410 -178.206400 3.443084 -168.031100 -41.978000 -86.125610 -22.941710 -2.052643 1.705008 -1.119446 -158.020400 -2.825165 -166.367200 -39.240390 -88.411320 -7.592224 -6.002502 4.395439 -6.580475 -162.730300 -9.468475 -167.788900 -31.479610 -85.617800 10.808260 0.199333 0.562932 -3.006683 166.708900 -8.619202 -159.769100 -48.977360 -83.530610 35.108170 5.539807 0.809172 -8.471497 
1.964463 3.300656 3.769525 65.643710 -17.839600 10.583360 61.461180 4.834466 71.975910 119.352900 -30.976930 38.225070 -112.863900 -65.843260 -27.877040 4.562082 -8.459839 -33.241700 -178.032200 3.442071 -168.123500 -41.977970 -86.125670 -22.516660 -2.052643 1.705005 -1.209717 -157.826200 -2.841949 -166.457800 -39.240690 -88.411320 -7.109070 -6.002502 4.395452 -6.993164 -162.591300 -9.496704 -167.928100 -31.479490 -85.617860 10.811570 0.199310 0.562922 -2.771210 166.868700 -8.678864 -159.881500 -48.977420 -83.530580 35.211670 5.539805 0.809180 -8.461487 
1.961972 3.291145 3.773867 65.682430 -17.940490 10.575520 61.461170 4.834468 71.706200 119.352900 -30.976930 38.116760 -112.863900 -65.843230 -27.647610 4.562083 -8.459839 -32.489500 -178.150700 3.442774 -168.017500 -41.978030 -86.125670 -22.565490 -2.052612 1.705004 -1.387421 -157.921900 -2.833679 -166.482400 -39.240810 -88.411320 -6.972931 -6.002533 4.395448 -7.064880 -162.513200 -9.512512 -167.964500 -31.479460 -85.617860 11.189020 0.199313 0.562936 -2.212433 166.945600 -8.707550 -159.904600 -48.977330 -83.530580 35.577950 5.539806 0.809170 -8.499512 
1.960107 3.283513 3.778690 65.833540 -18.141570 10.376430 61.461160 4.834466 71.906760 119.352900 -30.976900 37.934960 -112.863900 -65.843230 -28.020110 4.562095 -8.459808 -32.112640 -178.674700 3.445672 -168.435600 -41.978060 -86.125670 -22.917570 -2.052612 1.704992 -1.679321 -158.280800 -2.802673 -166.806800 -39.240300 -88.411320 -7.395905 -6.002533 4.395451 -6.842102 -162.580100 -9.498962 -168.354800 -31.479370 -85.617830 11.593140 0.199304 0.562934 -2.210510 166.898900 -8.690125 -160.210900 -48.977540 -83.530610 35.664290 5.539801 0.809170 -9.080719 
1.956361 3.275705 3.782162 65.809100 -18.203000 10.332520 61.461180 4.834475 71.828690 119.352900 -30.976930 38.035880 -112.864000 -65.843230 -27.648010 4.562095 -8.459839 -33.378970 -178.544300 3.444978 -168.345700 -41.977910 -86.125550 -22.566310 -2.052643 1.705007 -1.894073 -158.212700 -2.808563 -166.785900 -39.240330 -88.411320 -7.046936 -6.002533 4.395441 -6.864075 -162.587800 -9.497406 -168.379900 -31.479460 -85.617800 11.563200 0.199309 0.562924 -2.380493 166.969200 -8.716339 -160.113200 -48.977600 -83.530580 35.730480 5.539819 0.809176 -9.323853 
1.953464 3.267373 3.786779 65.854130 -18.265380 10.298590 61.461170 4.834472 71.687610 119.352900 -30.976930 37.970910 -112.864000 -65.843230 -27.892520 4.562097 -8.459839 -33.057590 -178.587500 3.445210 -168.427700 -41.978120 -86.125670 -22.177920 -2.052612 1.704977 -2.131470 -158.267000 -2.803864 -166.671200 -39.240390 -88.411440 -6.628479 -6.002502 4.395441 -6.897278 -162.564100 -9.502228 -168.422000 -31.479340 -85.617800 11.717960 0.199292 0.562926 -2.235687 166.929100 -8.701385 -160.079700 -48.977600 -83.530610 35.558650 5.539822 0.809210 -9.486237 
1.950508 3.258694 3.790394 65.832190 -18.483730 10.257280 61.461190 4.834475 71.895090 119.352900 -30.976930 38.029780 -112.863900 -65.843260 -28.244380 4.562098 -8.459839 -33.371920 -178.684500 3.445723 -168.579000 -41.977970 -86.125670 -22.211270 -2.052612 1.705009 -2.489655 -158.280200 -2.802734 -166.895700 -39.240420 -88.411440 -6.369598 -6.002502 4.395445 -7.387726 -162.352800 -9.544983 -168.646500 -31.479520 -85.617740 12.047810 0.199317 0.562922 -2.245087 167.166300 -8.789703 -160.182400 -48.977450 -83.530580 35.786110 5.539815 0.809179 -9.141083 
1.949830 3.252291 3.795368 66.091010 -18.632540 10.068050 61.461180 4.834476 71.681630 119.352900 -30.976930 37.871650 -112.864000 -65.843230 -28.557920 4.562096 -8.459839 -32.698060 -179.103400 3.447830 -168.697700 -41.978030 -86.125550 -21.922330 -2.052612 1.704991 -2.934875 -158.768600 -2.760376 -166.925000 -39.240110 -88.411440 -6.530182 -6.002533 4.395444 -7.457489 -162.703500 -9.473938 -168.674600 -31.479550 -85.617830 11.830310 0.199293 0.562929 -2.210480 166.880100 -8.683136 -160.241800 -48.977510 -83.530640 35.497330 5.539801 0.809182 -9.531982 
1.948584 3.244234 3.799816 66.202650 -18.888850 9.983066 61.461190 4.834468 71.542870 119.352900 -30.976930 37.685540 -112.864000 -65.843230 -28.526760 4.562087 -8.459869 -32.369780 -179.393500 3.449182 -168.828000 -41.978090 -86.125670 -22.184570 -2.052612 1.704988 -3.109802 -158.999600 -2.740265 -167.212100 -39.240480 -88.411440 -6.449493 -6.002533 4.395448 -7.716370 -162.972200 -9.419220 -168.834500 -31.479490 -85.617830 11.379200 0.199318 0.562923 -1.899475 167.090800 -8.761627 -160.404700 -48.977390 -83.530580 35.984310 5.539811 0.809167 -9.343384 
1.946980 3.237513 3.803841 66.368910 -18.782870 9.877550 61.461180 4.834470 71.229430 119.352900 -30.976900 37.762370 -112.864000 -65.843230 -28.622440 4.562099 -8.459839 -33.172790 -179.403500 3.449234 -168.712800 -41.978060 -86.125610 -21.672940 -2.052643 1.704994 -3.177277 -159.169300 -2.725464 -166.945400 -39.239840 -88.411440 -6.409546 -6.002533 4.395441 -7.626343 -163.309500 -9.350220 -168.723200 -31.479490 -85.617800 11.118160 0.199312 0.562934 -1.380981 166.614300 -8.583862 -160.274200 -48.977390 -83.530610 35.250550 5.539791 0.809166 -9.411896 
1.947228 3.228286 3.807721 66.452160 -18.958650 9.920885 61.461180 4.834476 71.097820 119.352900 -30.976900 37.795520 -112.864000 -65.843260 -28.507050 4.562093 -8.459839 -33.416230 -179.193200 3.448267 -168.740400 -41.977840 -86.125610 -21.411590 -2.052643 1.704993 -3.043457 -158.957900 -2.743896 -167.008200 -39.240450 -88.411320 -5.979553 -6.002502 4.395437 -7.016022 -163.026200 -9.408173 -168.802600 -31.479430 -85.617830 11.698710 0.199319 0.562926 -0.709778 166.861800 -8.676270 -160.389400 -48.977390 -83.530550 35.755670 5.539801 0.809175 -9.356964 
1.946529 3.221400 3.811223 66.553180 -19.320620 9.806294 61.461190 4.834455 71.381930 119.352900 -30.976930 37.912130 -112.863900 -65.843200 -28.553560 4.562078 -8.459839 -34.018130 -179.355100 3.449012 -168.915400 -41.978090 -86.125670 -21.706820 -2.052612 1.704986 -3.336823 -158.999800 -2.740234 -167.237000 -39.240450 -88.411320 -6.068573 -6.002533 4.395465 -6.814789 -162.853200 -9.443481 -169.127600 -31.479490 -85.617830 12.080300 0.199310 0.562935 -0.172760 167.231600 -8.813995 -160.458700 -48.977360 -83.530610 36.413420 5.539809 0.809183 -9.815552 
1.950680 3.212579 3.815838 66.927660 -19.618130 9.758667 61.461190 4.834478 71.199700 119.352900 -30.976930 37.690760 -112.864000 -65.843230 -28.589570 4.562097 -8.459839 -33.528290 -179.621900 3.450181 -169.094000 -41.977910 -86.125670 -21.557980 -2.052643 1.705005 -3.347961 -159.284400 -2.715393 -167.438400 -39.240200 -88.411190 -6.011536 -6.002502 4.395443 -7.001648 -163.241400 -9.364166 -169.277000 -31.479550 -85.617740 12.150390 0.199317 0.562927 -0.628143 167.088100 -8.760590 -160.717700 -48.977600 -83.530580 36.826350 5.539825 0.809193 -10.005950 
1.953182 3.204569 3.819442 67.151340 -19.916140 9.808056 61.461180 4.834473 71.130950 119.352900 -30.976930 37.761050 -112.863900 -65.843260 -28.550380 4.562107 -8.459839 -33.704620 -179.616400 3.450162 -169.075400 -41.977840 -86.125550 -21.514530 -2.052643 1.704992 -3.507385 -159.183100 -2.724243 -167.468300 -39.240080 -88.411190 -5.567383 -6.002533 4.395438 -7.189087 -163.065600 -9.400146 -169.252500 -31.479520 -85.617800 12.522510 0.199296 0.562925 -0.202667 167.067000 -8.752747 -160.586000 -48.977390 -83.530580 37.458760 5.539806 0.809176 -10.615360 
1.956626 3.193728 3.823121 67.185740 -20.396390 10.042060 61.461190 4.834460 71.214040 119.352900 -30.976930 37.865250 -112.863900 -65.843230 -28.727020 4.562089 -8.459839 -32.805760 -179.233100 3.448447 -169.140400 -41.978090 -86.125610 -21.163270 -2.052612 1.704994 -3.782837 -158.680800 -2.768005 -167.541800 -39.240510 -88.411320 -5.041138 -6.002502 4.395450 -7.402649 -162.650100 -9.484772 -169.355700 -31.479400 -85.617740 12.841550 0.199313 0.562925 -0.232849 167.537800 -8.927673 -160.584500 -48.977570 -83.530640 37.968560 5.539797 0.809197 -10.362790 
1.960566 3.183616 3.826728 67.421050 -20.636810 10.181470 61.461180 4.834465 71.031150 119.352900 -30.976900 37.876160 -112.863900 -65.843260 -28.508240 4.562089 -8.459839 -33.222960 -179.275900 3.448647 -169.169900 -41.977970 -86.125550 -21.049590 -2.052643 1.704991 -3.608215 -158.833300 -2.754761 -167.620500 -39.240300 -88.411560 -5.129364 -6.002502 4.395427 -7.053955 -162.767000 -9.460999 -169.433500 -31.479550 -85.617830 13.127680 0.199304 0.562934 -0.482239 167.227100 -8.812347 -160.626800 -48.977450 -83.530580 37.983970 5.539813 0.809173 -10.659300 
1.963582 3.172678 3.830398 67.485440 -20.987060 10.396930 61.461180 4.834475 71.148990 119.352900 -30.976900 37.957610 -112.864000 -65.843260 -28.354580 4.562093 -8.459839 -34.013150 -179.337000 3.448930 -169.384200 -41.978030 -86.125670 -21.119930 -2.052612 1.704989 -3.819794 -158.782500 -2.759155 -167.716900 -39.240750 -88.411440 -4.901489 -6.002502 4.395439 -7.533813 -162.685900 -9.477478 -169.556200 -31.479430 -85.617740 13.368620 0.199291 0.562942 -0.370972 167.226800 -8.812225 -160.693700 -48.977630 -83.530580 38.388400 5.539817 0.809182 -11.645170 
1.968691 3.161814 3.834752 67.653230 -20.980830 10.767580 61.461200 4.834470 71.030010 119.352900 -30.976930 37.605560 -112.863900 -65.843230 -27.775020 4.562074 -8.459839 -34.019380 -179.685400 3.450459 -169.620800 -41.978030 -86.125550 -21.192870 -2.052612 1.705006 -3.368805 -158.824000 -2.755554 -167.654100 -39.240570 -88.411440 -4.677399 -6.002502 4.395439 -7.598328 -162.735700 -9.467377 -169.375500 -31.479550 -85.617800 13.779130 0.199313 0.562933 -0.449280 166.700500 -8.616089 -160.202500 -48.977480 -83.530550 37.862680 5.539807 0.809174 -11.142970 
1.971879 3.151686 3.836826 67.556540 -20.968080 11.173030 61.461200 4.834468 71.395970 119.352900 -30.976930 37.987510 -112.864000 -65.843230 -27.819980 4.562083 -8.459839 -35.765350 -179.710200 3.450563 -169.420100 -41.978030 -86.125670 -21.505950 -2.052612 1.704998 -3.568420 -158.744100 -2.762512 -167.508900 -39.240880 -88.411320 -5.217255 -6.002502 4.395437 -7.136322 -162.536000 -9.507904 -169.558600 -31.479460 -85.617740 13.650850 0.199317 0.562924 -0.441284 166.795100 -8.651398 -160.312800 -48.977570 -83.530640 38.693520 5.539820 0.809175 -12.101780 
